<svg xmlns="http://www.w3.org/2000/svg" xmlns:xlink="http://www.w3.org/1999/xlink" width="2000" zoomAndPan="magnify" viewBox="0 0 1500 1499.999933" height="2000" preserveAspectRatio="xMidYMid meet" version="1.0"><defs><clipPath id="5d45f82d48"><path d="M 584.324219 0 L 1442.488281 0 L 1442.488281 1168.011719 L 584.324219 1168.011719 Z M 584.324219 0 " clip-rule="nonzero"/></clipPath><clipPath id="778431fbaf"><path d="M 730 850 L 999 850 L 999 1124 L 730 1124 Z M 730 850 " clip-rule="nonzero"/></clipPath><clipPath id="0f4880f480"><path d="M 0.00390625 875.109375 L 412.855469 372.957031 L 1102.726562 940.144531 L 689.878906 1442.296875 Z M 0.00390625 875.109375 " clip-rule="nonzero"/></clipPath><clipPath id="5ef296c75e"><path d="M 0.00390625 875.109375 L 412.855469 372.957031 L 1102.726562 940.144531 L 689.878906 1442.296875 Z M 0.00390625 875.109375 " clip-rule="nonzero"/></clipPath><clipPath id="6af3572ee4"><path d="M 99 754 L 937 754 L 937 1187 L 99 1187 Z M 99 754 " clip-rule="nonzero"/></clipPath><clipPath id="c3f47d12fe"><path d="M 0.00390625 875.109375 L 412.855469 372.957031 L 1102.726562 940.144531 L 689.878906 1442.296875 Z M 0.00390625 875.109375 " clip-rule="nonzero"/></clipPath><clipPath id="72ffc10526"><path d="M 0.00390625 875.109375 L 412.855469 372.957031 L 1102.726562 940.144531 L 689.878906 1442.296875 Z M 0.00390625 875.109375 " clip-rule="nonzero"/></clipPath><clipPath id="85731f4463"><path d="M 994 1022 L 1360 1022 L 1360 1395 L 994 1395 Z M 994 1022 " clip-rule="nonzero"/></clipPath><clipPath id="2490677cff"><path d="M 0 1056.378906 L 561.398438 373.542969 L 1500 1145.226562 L 938.601562 1828.058594 Z M 0 1056.378906 " clip-rule="nonzero"/></clipPath><clipPath id="8f7c3b11a9"><path d="M 0 1056.378906 L 561.398438 373.542969 L 1500 1145.226562 L 938.601562 1828.058594 Z M 0 1056.378906 " clip-rule="nonzero"/></clipPath><clipPath id="6a7766e898"><path d="M 135 892 L 1276 892 L 1276 1480 L 135 1480 Z M 135 892 " clip-rule="nonzero"/></clipPath><clipPath id="71faf72087"><path d="M 0 1056.378906 L 561.398438 373.542969 L 1500 1145.226562 L 938.601562 1828.058594 Z M 0 1056.378906 " clip-rule="nonzero"/></clipPath><clipPath id="942f5b6b2b"><path d="M 0 1056.378906 L 561.398438 373.542969 L 1500 1145.226562 L 938.601562 1828.058594 Z M 0 1056.378906 " clip-rule="nonzero"/></clipPath><clipPath id="c36f94a59a"><path d="M 550 0 L 618 0 L 618 1006 L 550 1006 Z M 550 0 " clip-rule="nonzero"/></clipPath><clipPath id="f507c94e98"><rect x="0" width="1500" y="0" height="1500"/></clipPath></defs><g transform="matrix(1, 0, 0, 1, 0, 0.000000000000112861)"><g clip-path="url(#f507c94e98)"><g clip-path="url(#5d45f82d48)"><path fill="#0a3966" d="M 531.652344 62.828125 C 479.605469 62.828125 437.414062 105.019531 437.414062 157.066406 L 437.414062 1162.289062 C 437.414062 1214.335938 479.605469 1256.527344 531.652344 1256.527344 L 1285.570312 1256.527344 C 1337.617188 1256.527344 1379.8125 1214.335938 1379.8125 1162.289062 L 1379.8125 466.164062 C 1379.8125 438.652344 1367.792969 412.515625 1346.902344 394.613281 L 986.285156 85.515625 C 969.207031 70.875 947.453125 62.828125 924.960938 62.828125 Z M 374.585938 157.066406 C 374.585938 70.320312 444.910156 0 531.652344 0 L 924.960938 0 C 962.449219 0 998.707031 13.414062 1027.171875 37.8125 L 1387.789062 346.910156 C 1422.601562 376.75 1442.636719 420.3125 1442.636719 466.164062 L 1442.636719 1162.289062 C 1442.636719 1249.035156 1372.316406 1319.355469 1285.570312 1319.355469 L 531.652344 1319.355469 C 444.910156 1319.355469 374.585938 1249.035156 374.585938 1162.289062 Z M 374.585938 157.066406 " fill-opacity="1" fill-rule="evenodd"/></g><path fill="#0a3966" d="M 940.027344 282.71875 L 940.027344 62.828125 L 1002.851562 62.828125 L 1002.851562 282.71875 C 1002.851562 334.765625 1045.046875 376.957031 1097.09375 376.957031 L 1379.8125 376.957031 L 1379.8125 439.785156 L 1097.09375 439.785156 C 1010.347656 439.785156 940.027344 369.464844 940.027344 282.71875 Z M 940.027344 282.71875 " fill-opacity="1" fill-rule="evenodd"/><g clip-path="url(#778431fbaf)"><g clip-path="url(#0f4880f480)"><g clip-path="url(#5ef296c75e)"><path fill="#27ae60" d="M 731.355469 910.644531 L 730.816406 911.542969 C 729.875 914.054688 732.914062 917.414062 739.933594 921.628906 L 835.089844 967.621094 L 873.582031 1010.082031 C 909.308594 1065.070312 931.917969 1101.191406 941.402344 1118.445312 C 945.480469 1124.15625 948.476562 1124.828125 950.390625 1120.457031 C 952.394531 1116.890625 955.011719 1107.859375 958.242188 1093.363281 C 974.527344 1010.726562 983.507812 964.28125 985.183594 954.023438 C 994.210938 899.402344 998.628906 870.558594 998.433594 867.496094 C 999.222656 861.140625 997.878906 856.0625 994.390625 852.265625 C 990.726562 849.964844 986.214844 849.511719 980.855469 850.914062 C 947.859375 860.457031 914.066406 869.414062 879.476562 877.792969 C 815.273438 892.753906 766.414062 903.296875 732.902344 909.421875 C 732.359375 909.707031 731.84375 910.113281 731.355469 910.644531 " fill-opacity="1" fill-rule="nonzero"/></g></g></g><g clip-path="url(#6af3572ee4)"><g clip-path="url(#c3f47d12fe)"><g clip-path="url(#72ffc10526)"><path fill="#27ae60" d="M 99.371094 754.890625 L 99.378906 770.382812 C 101.027344 803.035156 112.496094 845.6875 133.78125 898.339844 C 156.566406 956.039062 181.703125 1001.308594 209.183594 1034.148438 C 218.84375 1046.308594 229.089844 1057.898438 239.929688 1068.917969 C 244.613281 1075.140625 262.203125 1090.382812 292.710938 1114.644531 C 334.546875 1142.503906 378.03125 1162.21875 423.164062 1173.789062 C 445.730469 1179.570312 468.710938 1183.316406 492.105469 1185.027344 L 527.503906 1186.066406 C 576.515625 1184.984375 624.375 1176.621094 671.085938 1160.972656 C 719.105469 1145.28125 768.589844 1122.226562 819.539062 1091.800781 C 883.863281 1050.546875 922.902344 1023.585938 936.644531 1010.914062 L 826.089844 931.984375 C 796.523438 962.898438 766.804688 989.53125 736.929688 1011.871094 C 707.058594 1034.214844 677.035156 1052.269531 646.855469 1066.035156 L 601.476562 1083.46875 C 571.148438 1092.949219 540.664062 1098.140625 510.03125 1099.046875 L 463.964844 1097.1875 L 417.671875 1088.902344 L 393.828125 1081.792969 C 333.824219 1063.863281 277.011719 1026.90625 223.398438 970.925781 C 205.410156 952.382812 185.628906 924.632812 164.058594 887.679688 C 147.679688 858.738281 127.683594 816.242188 104.070312 760.1875 C 102.417969 756.804688 100.851562 755.039062 99.371094 754.890625 " fill-opacity="1" fill-rule="nonzero"/></g></g></g><g clip-path="url(#85731f4463)"><g clip-path="url(#2490677cff)"><g clip-path="url(#8f7c3b11a9)"><path fill="#27ae60" d="M 995.667969 1104.753906 L 994.933594 1105.980469 C 993.648438 1109.398438 997.785156 1113.972656 1007.34375 1119.710938 L 1136.894531 1182.324219 L 1189.296875 1240.128906 C 1237.933594 1314.988281 1268.710938 1364.164062 1281.625 1387.65625 C 1287.175781 1395.433594 1291.253906 1396.347656 1293.859375 1390.394531 C 1296.59375 1385.542969 1300.15625 1373.246094 1304.550781 1353.507812 C 1326.71875 1241.011719 1338.949219 1177.777344 1341.230469 1163.8125 C 1353.519531 1089.453125 1359.53125 1050.1875 1359.265625 1046.011719 C 1360.34375 1037.359375 1358.507812 1030.449219 1353.761719 1025.28125 C 1348.773438 1022.144531 1342.632812 1021.53125 1335.335938 1023.441406 C 1290.414062 1036.429688 1244.410156 1048.628906 1197.320312 1060.035156 C 1109.914062 1080.402344 1043.394531 1094.753906 997.773438 1103.089844 C 997.03125 1103.480469 996.328125 1104.035156 995.667969 1104.753906 " fill-opacity="1" fill-rule="nonzero"/></g></g></g><g clip-path="url(#6a7766e898)"><g clip-path="url(#71faf72087)"><g clip-path="url(#942f5b6b2b)"><path fill="#27ae60" d="M 135.28125 892.710938 L 135.289062 913.804688 C 137.53125 958.257812 153.144531 1016.324219 182.128906 1088.003906 C 213.148438 1166.558594 247.367188 1228.1875 284.78125 1272.894531 C 297.929688 1289.449219 311.882812 1305.226562 326.640625 1320.226562 C 333.011719 1328.699219 356.964844 1349.453125 398.492188 1382.484375 C 455.445312 1420.410156 514.648438 1447.25 576.09375 1463 C 606.816406 1470.875 638.101562 1475.976562 669.949219 1478.304688 L 718.140625 1479.71875 C 784.863281 1478.242188 850.023438 1466.855469 913.617188 1445.554688 C 978.988281 1424.195312 1046.355469 1392.804688 1115.71875 1351.382812 C 1203.292969 1295.222656 1256.4375 1258.515625 1275.148438 1241.265625 L 1124.636719 1133.808594 C 1084.382812 1175.898438 1043.925781 1212.152344 1003.257812 1242.566406 C 962.585938 1272.984375 921.710938 1297.5625 880.628906 1316.304688 L 818.847656 1340.042969 C 777.558594 1352.945312 736.058594 1360.015625 694.355469 1361.25 L 631.640625 1358.71875 L 568.613281 1347.433594 L 536.15625 1337.757812 C 454.464844 1313.347656 377.125 1263.035156 304.132812 1186.824219 C 279.644531 1161.578125 252.714844 1123.800781 223.34375 1073.492188 C 201.050781 1034.09375 173.828125 976.234375 141.675781 899.921875 C 139.425781 895.316406 137.296875 892.914062 135.28125 892.710938 " fill-opacity="1" fill-rule="nonzero"/></g></g></g><g clip-path="url(#c36f94a59a)"><path stroke-linecap="butt" transform="matrix(0.00000000265093, -1.518873, 1.518873, 0.00000000265093, 550.90945, 972.079)" fill="none" stroke-linejoin="miter" d="M 0.000576302 21.999705 L 639.999987 21.999704 " stroke="#0a3966" stroke-width="44" stroke-opacity="1" stroke-miterlimit="4"/></g></g></g></svg>