<svg xmlns="http://www.w3.org/2000/svg" xmlns:xlink="http://www.w3.org/1999/xlink" width="2000" zoomAndPan="magnify" viewBox="0 0 1500 374.999991" height="500" preserveAspectRatio="xMidYMid meet" version="1.0"><defs><g/><clipPath id="a5c1f79a2a"><rect x="0" width="1500" y="0" height="326"/></clipPath></defs><g transform="matrix(1, 0, 0, 1, 0, 24)"><g clip-path="url(#a5c1f79a2a)"><g fill="#0a3966" fill-opacity="1"><g transform="translate(0.0283612, 258.733289)"><g><path d="M 65.171875 -151.640625 L 65.171875 -102.421875 L 151.375 -102.421875 L 151.375 -67.84375 L 65.171875 -67.84375 L 65.171875 0 L 22.078125 0 L 22.078125 -186.21875 L 162.8125 -186.21875 L 162.8125 -151.640625 Z M 65.171875 -151.640625 "/></g></g></g><g fill="#0a3966" fill-opacity="1"><g transform="translate(162.310338, 258.733289)"><g><path d="M 144.71875 -39.90625 L 58.265625 -39.90625 L 41.765625 0 L -2.390625 0 L 80.609375 -186.21875 L 123.171875 -186.21875 L 206.4375 0 L 161.21875 0 Z M 131.15625 -72.625 L 101.625 -143.921875 L 72.09375 -72.625 Z M 131.15625 -72.625 "/></g></g></g><g fill="#0a3966" fill-opacity="1"><g transform="translate(363.43354, 258.733289)"><g><path d="M 111.203125 3.1875 C 92.222656 3.1875 75.0625 -0.929688 59.71875 -9.171875 C 44.382812 -17.421875 32.328125 -28.859375 23.546875 -43.484375 C 14.765625 -58.117188 10.375 -74.660156 10.375 -93.109375 C 10.375 -111.554688 14.765625 -128.09375 23.546875 -142.71875 C 32.328125 -157.351562 44.382812 -168.796875 59.71875 -177.046875 C 75.0625 -185.296875 92.3125 -189.421875 111.46875 -189.421875 C 127.601562 -189.421875 142.1875 -186.582031 155.21875 -180.90625 C 168.257812 -175.226562 179.210938 -167.066406 188.078125 -156.421875 L 160.421875 -130.890625 C 147.828125 -145.429688 132.21875 -152.703125 113.59375 -152.703125 C 102.0625 -152.703125 91.773438 -150.171875 82.734375 -145.109375 C 73.691406 -140.054688 66.640625 -133.007812 61.578125 -123.96875 C 56.523438 -114.925781 54 -104.640625 54 -93.109375 C 54 -81.578125 56.523438 -71.289062 61.578125 -62.25 C 66.640625 -53.207031 73.691406 -46.15625 82.734375 -41.09375 C 91.773438 -36.039062 102.0625 -33.515625 113.59375 -33.515625 C 132.21875 -33.515625 147.828125 -40.875 160.421875 -55.59375 L 188.078125 -30.0625 C 179.210938 -19.238281 168.21875 -10.988281 155.09375 -5.3125 C 141.96875 0.351562 127.335938 3.1875 111.203125 3.1875 Z M 111.203125 3.1875 "/></g></g></g><g fill="#0a3966" fill-opacity="1"><g transform="translate(556.575711, 258.733289)"><g><path d="M 60.65625 -151.109375 L 1.0625 -151.109375 L 1.0625 -186.21875 L 163.34375 -186.21875 L 163.34375 -151.109375 L 103.75 -151.109375 L 103.75 0 L 60.65625 0 Z M 60.65625 -151.109375 "/></g></g></g><g fill="#0a3966" fill-opacity="1"><g transform="translate(717.793514, 258.733289)"><g><path d="M 104.8125 3.1875 C 78.207031 3.1875 57.5 -4.171875 42.6875 -18.890625 C 27.882812 -33.609375 20.484375 -54.625 20.484375 -81.9375 L 20.484375 -186.21875 L 63.578125 -186.21875 L 63.578125 -83.53125 C 63.578125 -50.1875 77.410156 -33.515625 105.078125 -33.515625 C 118.554688 -33.515625 128.84375 -37.550781 135.9375 -45.625 C 143.03125 -53.695312 146.578125 -66.332031 146.578125 -83.53125 L 146.578125 -186.21875 L 189.140625 -186.21875 L 189.140625 -81.9375 C 189.140625 -54.625 181.734375 -33.609375 166.921875 -18.890625 C 152.117188 -4.171875 131.414062 3.1875 104.8125 3.1875 Z M 104.8125 3.1875 "/></g></g></g><g fill="#0a3966" fill-opacity="1"><g transform="translate(927.429928, 258.733289)"><g><path d="M 140.734375 0 L 104.8125 -51.875 L 65.171875 -51.875 L 65.171875 0 L 22.078125 0 L 22.078125 -186.21875 L 102.6875 -186.21875 C 119.175781 -186.21875 133.492188 -183.46875 145.640625 -177.96875 C 157.796875 -172.476562 167.15625 -164.675781 173.71875 -154.5625 C 180.28125 -144.457031 183.5625 -132.488281 183.5625 -118.65625 C 183.5625 -104.820312 180.234375 -92.894531 173.578125 -82.875 C 166.929688 -72.851562 157.488281 -65.179688 145.25 -59.859375 L 187.015625 0 Z M 139.9375 -118.65625 C 139.9375 -129.113281 136.566406 -137.132812 129.828125 -142.71875 C 123.085938 -148.3125 113.242188 -151.109375 100.296875 -151.109375 L 65.171875 -151.109375 L 65.171875 -86.1875 L 100.296875 -86.1875 C 113.242188 -86.1875 123.085938 -89.023438 129.828125 -94.703125 C 136.566406 -100.378906 139.9375 -108.363281 139.9375 -118.65625 Z M 139.9375 -118.65625 "/></g></g></g><g fill="#0a3966" fill-opacity="1"><g transform="translate(1122.973448, 258.733289)"><g><path d="M 30.328125 -186.21875 L 50.015625 -186.21875 L 50.015625 0 L 30.328125 0 Z M 30.328125 -186.21875 "/></g></g></g><g fill="#0a3966" fill-opacity="1"><g transform="translate(1203.316354, 258.733289)"><g><path d="M 185.953125 -186.21875 L 185.953125 0 L 169.734375 0 L 50.015625 -151.109375 L 50.015625 0 L 30.328125 0 L 30.328125 -186.21875 L 46.5625 -186.21875 L 166.53125 -35.109375 L 166.53125 -186.21875 Z M 185.953125 -186.21875 "/></g></g></g><g fill="#0a3966" fill-opacity="1"><g transform="translate(1419.603634, 258.733289)"><g><path d="M 30.328125 -186.21875 L 50.015625 -186.21875 L 50.015625 0 L 30.328125 0 Z M 30.328125 -186.21875 "/></g></g></g></g></g></svg>