<svg xmlns="http://www.w3.org/2000/svg" xmlns:xlink="http://www.w3.org/1999/xlink" width="2000" zoomAndPan="magnify" viewBox="0 0 1500 1499.999933" height="2000" preserveAspectRatio="xMidYMid meet" version="1.0"><defs><g/><clipPath id="666ec52d74"><path d="M 468.460938 27.554688 L 1154.992188 27.554688 L 1154.992188 961.964844 L 468.460938 961.964844 Z M 468.460938 27.554688 " clip-rule="nonzero"/></clipPath><clipPath id="74b3c7f7bc"><path d="M 585 707 L 800 707 L 800 927 L 585 927 Z M 585 707 " clip-rule="nonzero"/></clipPath><clipPath id="db519de039"><path d="M 1.003906 727.640625 L 331.285156 325.917969 L 883.183594 779.667969 L 552.902344 1181.390625 Z M 1.003906 727.640625 " clip-rule="nonzero"/></clipPath><clipPath id="f013a06154"><path d="M 1.003906 727.640625 L 331.285156 325.917969 L 883.183594 779.667969 L 552.902344 1181.390625 Z M 1.003906 727.640625 " clip-rule="nonzero"/></clipPath><clipPath id="6f9c4a0452"><path d="M 80 631 L 751 631 L 751 977 L 80 977 Z M 80 631 " clip-rule="nonzero"/></clipPath><clipPath id="884e7296e3"><path d="M 1.003906 727.640625 L 331.285156 325.917969 L 883.183594 779.667969 L 552.902344 1181.390625 Z M 1.003906 727.640625 " clip-rule="nonzero"/></clipPath><clipPath id="91cb4dd63f"><path d="M 1.003906 727.640625 L 331.285156 325.917969 L 883.183594 779.667969 L 552.902344 1181.390625 Z M 1.003906 727.640625 " clip-rule="nonzero"/></clipPath><clipPath id="065f6ae823"><path d="M 796 845 L 1089 845 L 1089 1143 L 796 1143 Z M 796 845 " clip-rule="nonzero"/></clipPath><clipPath id="46f5329f74"><path d="M 1 872.65625 L 450.117188 326.390625 L 1201 943.734375 L 751.882812 1490 Z M 1 872.65625 " clip-rule="nonzero"/></clipPath><clipPath id="ae390c9506"><path d="M 1 872.65625 L 450.117188 326.390625 L 1201 943.734375 L 751.882812 1490 Z M 1 872.65625 " clip-rule="nonzero"/></clipPath><clipPath id="1ef00d73b4"><path d="M 109 741 L 1022 741 L 1022 1212 L 109 1212 Z M 109 741 " clip-rule="nonzero"/></clipPath><clipPath id="90bed434ee"><path d="M 1 872.65625 L 450.117188 326.390625 L 1201 943.734375 L 751.882812 1490 Z M 1 872.65625 " clip-rule="nonzero"/></clipPath><clipPath id="ec983edaea"><path d="M 1 872.65625 L 450.117188 326.390625 L 1201 943.734375 L 751.882812 1490 Z M 1 872.65625 " clip-rule="nonzero"/></clipPath><clipPath id="7e86b1d7bd"><path d="M 441 0.800781 L 496 0.800781 L 496 832 L 441 832 Z M 441 0.800781 " clip-rule="nonzero"/></clipPath><clipPath id="da014c3c34"><rect x="0" width="1201" y="0" height="1490"/></clipPath></defs><g transform="matrix(1, 0, 0, 1, 149, 10)"><g clip-path="url(#da014c3c34)"><g clip-path="url(#666ec52d74)"><path fill="#0a3966" d="M 426.324219 77.8125 C 384.683594 77.8125 350.929688 111.566406 350.929688 153.207031 L 350.929688 957.382812 C 350.929688 999.019531 384.683594 1032.777344 426.324219 1032.777344 L 1029.457031 1032.777344 C 1071.09375 1032.777344 1104.847656 999.019531 1104.847656 957.382812 L 1104.847656 400.484375 C 1104.847656 378.476562 1095.234375 357.566406 1078.523438 343.242188 L 790.027344 95.964844 C 776.367188 84.253906 758.960938 77.8125 740.96875 77.8125 Z M 300.671875 153.207031 C 300.671875 83.808594 356.925781 27.554688 426.324219 27.554688 L 740.96875 27.554688 C 770.957031 27.554688 799.964844 38.28125 822.738281 57.804688 L 1111.230469 305.082031 C 1139.082031 328.953125 1155.109375 363.804688 1155.109375 400.484375 L 1155.109375 957.382812 C 1155.109375 1026.78125 1098.851562 1083.039062 1029.457031 1083.039062 L 426.324219 1083.039062 C 356.925781 1083.039062 300.671875 1026.78125 300.671875 957.382812 Z M 300.671875 153.207031 " fill-opacity="1" fill-rule="evenodd"/></g><path fill="#0a3966" d="M 753.019531 253.726562 L 753.019531 77.8125 L 803.28125 77.8125 L 803.28125 253.726562 C 803.28125 295.367188 837.039062 329.121094 878.671875 329.121094 L 1104.847656 329.121094 L 1104.847656 379.382812 L 878.671875 379.382812 C 809.277344 379.382812 753.019531 323.125 753.019531 253.726562 Z M 753.019531 253.726562 " fill-opacity="1" fill-rule="evenodd"/><g clip-path="url(#74b3c7f7bc)"><g clip-path="url(#db519de039)"><g clip-path="url(#f013a06154)"><path fill="#27ae60" d="M 586.085938 756.066406 L 585.652344 756.789062 C 584.898438 758.796875 587.332031 761.484375 592.945312 764.855469 L 669.074219 801.648438 L 699.867188 835.617188 C 728.449219 879.609375 746.535156 908.503906 754.121094 922.308594 C 757.382812 926.878906 759.78125 927.414062 761.3125 923.917969 C 762.917969 921.066406 765.011719 913.839844 767.59375 902.242188 C 780.621094 836.136719 787.804688 798.980469 789.148438 790.773438 C 796.371094 747.074219 799.902344 724 799.746094 721.550781 C 800.378906 716.464844 799.300781 712.402344 796.511719 709.367188 C 793.582031 707.523438 789.972656 707.164062 785.683594 708.285156 C 759.289062 715.917969 732.253906 723.085938 704.582031 729.789062 C 653.21875 741.757812 614.132812 750.191406 587.320312 755.089844 C 586.886719 755.320312 586.472656 755.644531 586.085938 756.066406 " fill-opacity="1" fill-rule="nonzero"/></g></g></g><g clip-path="url(#6f9c4a0452)"><g clip-path="url(#884e7296e3)"><g clip-path="url(#91cb4dd63f)"><path fill="#27ae60" d="M 80.496094 631.464844 L 80.503906 643.859375 C 81.820312 669.980469 90.996094 704.101562 108.027344 746.222656 C 126.253906 792.382812 146.363281 828.601562 168.347656 854.871094 C 176.074219 864.597656 184.273438 873.871094 192.945312 882.6875 C 196.691406 887.664062 210.765625 899.859375 235.167969 919.269531 C 268.636719 941.558594 303.425781 957.328125 339.53125 966.582031 C 357.585938 971.210938 375.96875 974.207031 394.683594 975.574219 L 423.003906 976.40625 C 462.210938 975.539062 500.5 968.847656 537.871094 956.332031 C 576.285156 943.777344 615.871094 925.332031 656.628906 900.992188 C 708.09375 867.992188 739.320312 846.421875 750.316406 836.285156 L 661.871094 773.140625 C 638.21875 797.875 614.441406 819.175781 590.542969 837.050781 C 566.648438 854.925781 542.625 869.367188 518.484375 880.382812 L 482.183594 894.328125 C 457.917969 901.914062 433.53125 906.066406 409.023438 906.792969 L 372.171875 905.304688 L 335.136719 898.671875 L 316.0625 892.988281 C 268.058594 878.640625 222.609375 849.078125 179.71875 804.292969 C 165.328125 789.457031 149.503906 767.257812 132.246094 737.695312 C 119.144531 714.542969 103.148438 680.546875 84.253906 635.703125 C 82.933594 632.996094 81.679688 631.582031 80.496094 631.464844 " fill-opacity="1" fill-rule="nonzero"/></g></g></g><g clip-path="url(#065f6ae823)"><g clip-path="url(#46f5329f74)"><g clip-path="url(#ae390c9506)"><path fill="#27ae60" d="M 797.535156 911.355469 L 796.945312 912.335938 C 795.917969 915.070312 799.226562 918.734375 806.875 923.320312 L 910.515625 973.414062 L 952.4375 1019.65625 C 991.347656 1079.546875 1015.96875 1118.886719 1026.300781 1137.675781 C 1030.738281 1143.902344 1034.003906 1144.632812 1036.085938 1139.871094 C 1038.273438 1135.988281 1041.125 1126.152344 1044.636719 1110.359375 C 1062.375 1020.363281 1072.15625 969.777344 1073.984375 958.605469 C 1083.816406 899.117188 1088.625 867.703125 1088.410156 864.363281 C 1089.273438 857.441406 1087.808594 851.914062 1084.011719 847.777344 C 1080.019531 845.269531 1075.105469 844.777344 1069.269531 846.304688 C 1033.332031 856.695312 996.527344 866.457031 958.855469 875.582031 C 888.929688 891.875 835.714844 903.355469 799.21875 910.027344 C 798.625 910.335938 798.0625 910.78125 797.535156 911.355469 " fill-opacity="1" fill-rule="nonzero"/></g></g></g><g clip-path="url(#1ef00d73b4)"><g clip-path="url(#90bed434ee)"><g clip-path="url(#ec983edaea)"><path fill="#27ae60" d="M 109.226562 741.722656 L 109.230469 758.597656 C 111.027344 794.15625 123.515625 840.609375 146.703125 897.957031 C 171.519531 960.800781 198.894531 1010.101562 228.824219 1045.867188 C 239.34375 1059.113281 250.503906 1071.734375 262.3125 1083.734375 C 267.410156 1090.511719 286.570312 1107.113281 319.792969 1133.539062 C 365.355469 1163.882812 412.71875 1185.351562 461.875 1197.953125 C 486.453125 1204.25 511.480469 1208.332031 536.960938 1210.195312 L 575.511719 1211.328125 C 628.890625 1210.148438 681.019531 1201.039062 731.890625 1183.996094 C 784.191406 1166.90625 838.082031 1141.796875 893.574219 1108.660156 C 963.632812 1063.730469 1006.148438 1034.367188 1021.121094 1020.566406 L 900.707031 934.597656 C 868.507812 968.269531 836.140625 997.273438 803.605469 1021.605469 C 771.070312 1045.941406 738.367188 1065.605469 705.503906 1080.597656 L 656.078125 1099.585938 C 623.046875 1109.910156 589.847656 1115.566406 556.484375 1116.554688 L 506.3125 1114.527344 L 455.890625 1105.5 L 429.925781 1097.761719 C 364.570312 1078.230469 302.699219 1037.980469 244.304688 977.011719 C 224.714844 956.816406 203.171875 926.59375 179.675781 886.347656 C 161.839844 854.828125 140.0625 808.542969 114.339844 747.492188 C 112.539062 743.808594 110.835938 741.882812 109.226562 741.722656 " fill-opacity="1" fill-rule="nonzero"/></g></g></g><g clip-path="url(#7e86b1d7bd)"><path stroke-linecap="butt" transform="matrix(0.00000000212075, -1.215099, 1.215099, 0.00000000212075, 441.72751, 805.216334)" fill="none" stroke-linejoin="miter" d="M 0.0012263 22.001034 L 639.998771 22.001033 " stroke="#0a3966" stroke-width="44" stroke-opacity="1" stroke-miterlimit="4"/></g></g></g><g fill="#0a3966" fill-opacity="1"><g transform="translate(150.023458, 1446.999455)"><g><path d="M 53.890625 -125.390625 L 53.890625 -84.6875 L 125.171875 -84.6875 L 125.171875 -56.09375 L 53.890625 -56.09375 L 53.890625 0 L 18.265625 0 L 18.265625 -153.984375 L 134.625 -153.984375 L 134.625 -125.390625 Z M 53.890625 -125.390625 "/></g></g></g><g fill="#0a3966" fill-opacity="1"><g transform="translate(284.217121, 1446.999455)"><g><path d="M 119.671875 -33 L 48.171875 -33 L 34.53125 0 L -1.984375 0 L 66.65625 -153.984375 L 101.859375 -153.984375 L 170.703125 0 L 133.3125 0 Z M 108.453125 -60.0625 L 84.03125 -119.015625 L 59.609375 -60.0625 Z M 108.453125 -60.0625 "/></g></g></g><g fill="#0a3966" fill-opacity="1"><g transform="translate(450.52924, 1446.999455)"><g><path d="M 91.953125 2.640625 C 76.265625 2.640625 62.078125 -0.765625 49.390625 -7.578125 C 36.703125 -14.398438 26.726562 -23.859375 19.46875 -35.953125 C 12.207031 -48.054688 8.578125 -61.738281 8.578125 -77 C 8.578125 -92.25 12.207031 -105.921875 19.46875 -118.015625 C 26.726562 -130.117188 36.703125 -139.578125 49.390625 -146.390625 C 62.078125 -153.210938 76.335938 -156.625 92.171875 -156.625 C 105.515625 -156.625 117.578125 -154.273438 128.359375 -149.578125 C 139.140625 -144.890625 148.195312 -138.144531 155.53125 -129.34375 L 132.65625 -108.234375 C 122.238281 -120.253906 109.332031 -126.265625 93.9375 -126.265625 C 84.40625 -126.265625 75.898438 -124.175781 68.421875 -120 C 60.941406 -115.820312 55.109375 -109.992188 50.921875 -102.515625 C 46.742188 -95.035156 44.65625 -86.53125 44.65625 -77 C 44.65625 -67.46875 46.742188 -58.957031 50.921875 -51.46875 C 55.109375 -43.988281 60.941406 -38.160156 68.421875 -33.984375 C 75.898438 -29.804688 84.40625 -27.71875 93.9375 -27.71875 C 109.332031 -27.71875 122.238281 -33.804688 132.65625 -45.984375 L 155.53125 -24.859375 C 148.195312 -15.910156 139.101562 -9.085938 128.25 -4.390625 C 117.394531 0.292969 105.296875 2.640625 91.953125 2.640625 Z M 91.953125 2.640625 "/></g></g></g><g fill="#0a3966" fill-opacity="1"><g transform="translate(610.241711, 1446.999455)"><g><path d="M 50.15625 -124.953125 L 0.875 -124.953125 L 0.875 -153.984375 L 135.078125 -153.984375 L 135.078125 -124.953125 L 85.796875 -124.953125 L 85.796875 0 L 50.15625 0 Z M 50.15625 -124.953125 "/></g></g></g><g fill="#0a3966" fill-opacity="1"><g transform="translate(743.555392, 1446.999455)"><g><path d="M 86.671875 2.640625 C 64.671875 2.640625 47.546875 -3.441406 35.296875 -15.609375 C 23.054688 -27.785156 16.9375 -45.164062 16.9375 -67.75 L 16.9375 -153.984375 L 52.578125 -153.984375 L 52.578125 -69.078125 C 52.578125 -41.503906 64.015625 -27.71875 86.890625 -27.71875 C 98.035156 -27.71875 106.539062 -31.050781 112.40625 -37.71875 C 118.28125 -44.394531 121.21875 -54.847656 121.21875 -69.078125 L 121.21875 -153.984375 L 156.40625 -153.984375 L 156.40625 -67.75 C 156.40625 -45.164062 150.28125 -27.785156 138.03125 -15.609375 C 125.789062 -3.441406 108.671875 2.640625 86.671875 2.640625 Z M 86.671875 2.640625 "/></g></g></g><g fill="#0a3966" fill-opacity="1"><g transform="translate(916.907227, 1446.999455)"><g><path d="M 116.375 0 L 86.671875 -42.890625 L 53.890625 -42.890625 L 53.890625 0 L 18.265625 0 L 18.265625 -153.984375 L 84.90625 -153.984375 C 98.550781 -153.984375 110.394531 -151.707031 120.4375 -147.15625 C 130.488281 -142.613281 138.226562 -136.160156 143.65625 -127.796875 C 149.082031 -119.441406 151.796875 -109.546875 151.796875 -98.109375 C 151.796875 -86.671875 149.046875 -76.804688 143.546875 -68.515625 C 138.046875 -60.234375 130.234375 -53.894531 120.109375 -49.5 L 154.65625 0 Z M 115.71875 -98.109375 C 115.71875 -106.765625 112.929688 -113.398438 107.359375 -118.015625 C 101.785156 -122.640625 93.644531 -124.953125 82.9375 -124.953125 L 53.890625 -124.953125 L 53.890625 -71.28125 L 82.9375 -71.28125 C 93.644531 -71.28125 101.785156 -73.625 107.359375 -78.3125 C 112.929688 -83.007812 115.71875 -89.609375 115.71875 -98.109375 Z M 115.71875 -98.109375 "/></g></g></g><g fill="#0a3966" fill-opacity="1"><g transform="translate(1078.605413, 1446.999455)"><g><path d="M 25.078125 -153.984375 L 41.359375 -153.984375 L 41.359375 0 L 25.078125 0 Z M 25.078125 -153.984375 "/></g></g></g><g fill="#0a3966" fill-opacity="1"><g transform="translate(1145.042297, 1446.999455)"><g><path d="M 153.765625 -153.984375 L 153.765625 0 L 140.34375 0 L 41.359375 -124.953125 L 41.359375 0 L 25.078125 0 L 25.078125 -153.984375 L 38.5 -153.984375 L 137.703125 -29.03125 L 137.703125 -153.984375 Z M 153.765625 -153.984375 "/></g></g></g><g fill="#0a3966" fill-opacity="1"><g transform="translate(1323.893844, 1446.999455)"><g><path d="M 25.078125 -153.984375 L 41.359375 -153.984375 L 41.359375 0 L 25.078125 0 Z M 25.078125 -153.984375 "/></g></g></g></svg>